<svg width="17" height="11" viewBox="0 0 17 11" fill="none" xmlns="http://www.w3.org/2000/svg">
<path fill-rule="evenodd" clip-rule="evenodd" d="M16.618 5.83926C16.7118 5.74549 16.7645 5.61832 16.7645 5.48571C16.7645 5.3531 16.7118 5.22592 16.618 5.13215L12.3754 0.889514C12.2816 0.795746 12.1544 0.743067 12.0218 0.743067C11.8892 0.743067 11.762 0.795746 11.6683 0.889514C11.5745 0.983282 11.5218 1.11046 11.5218 1.24307C11.5218 1.37568 11.5745 1.50285 11.6683 1.59662L15.0574 4.98578L0.708112 4.98508C0.575336 4.98508 0.447999 5.03782 0.354112 5.13171C0.260226 5.22559 0.20748 5.35293 0.20748 5.48571C0.20748 5.61848 0.260226 5.74582 0.354112 5.83971C0.447998 5.93359 0.575336 5.98634 0.708112 5.98634L15.0574 5.98563L11.6683 9.3748C11.5745 9.46856 11.5218 9.59574 11.5218 9.72835C11.5218 9.86096 11.5745 9.98813 11.6683 10.0819C11.762 10.1757 11.8892 10.2283 12.0218 10.2283C12.1544 10.2283 12.2816 10.1757 12.3754 10.0819L16.618 5.83926Z" fill="#272727"/>
</svg>
