<svg width="81" height="24" viewBox="0 0 81 24" fill="none" xmlns="http://www.w3.org/2000/svg">
<path d="M18.0616 18.288C17.4696 18.288 16.9896 18.08 16.6216 17.664C16.2536 17.232 16.0696 16.656 16.0696 15.936C16.0696 15.2 16.3976 13.384 17.0536 10.488C17.7256 7.592 18.0616 5.744 18.0616 4.944C18.0616 4.144 17.7496 3.744 17.1256 3.744C16.2616 3.744 15.3096 4.128 14.2696 4.896C14.1576 5.76 13.8296 7.272 13.2856 9.432C12.7416 11.576 12.3736 13.168 12.1816 14.208C12.0056 15.232 11.9176 16.024 11.9176 16.584C11.9176 17.144 11.9256 17.488 11.9416 17.616C11.3176 17.936 10.2056 18.096 8.60556 18.096H8.14956C8.14956 16.752 8.52556 14.464 9.27756 11.232C10.0456 7.936 10.4296 5.864 10.4296 5.016C10.4296 4.168 10.1336 3.744 9.54156 3.744C8.67756 3.744 7.66956 4.16 6.51756 4.992C6.34156 5.872 6.01356 7.304 5.53356 9.288C4.46156 13.832 3.92556 16.608 3.92556 17.616C3.30156 17.936 2.19756 18.096 0.613563 18.096H0.157563C0.221563 17.376 0.645563 15.264 1.42956 11.76C2.21356 8.24 2.70156 5.608 2.89356 3.864C2.89356 3.608 2.80556 3.304 2.62956 2.952C2.46956 2.584 2.30156 2.288 2.12556 2.064L1.88556 1.728L1.95756 1.368C2.85356 1.096 4.39756 0.959999 6.58956 0.959999C6.79756 1.344 6.90156 1.832 6.90156 2.424C6.90156 2.552 6.86956 2.888 6.80556 3.432C8.64556 1.784 10.2936 0.959999 11.7496 0.959999C12.4056 0.959999 12.9576 1.184 13.4056 1.632C13.8536 2.08 14.1416 2.664 14.2696 3.384C16.1736 1.768 17.7896 0.959999 19.1176 0.959999C19.9496 0.959999 20.6216 1.232 21.1336 1.776C21.6456 2.32 21.9016 3.08 21.9016 4.056C21.9016 5.032 21.5576 6.896 20.8696 9.648C20.1976 12.384 19.8616 14.296 19.8616 15.384C19.8616 15.848 19.9416 16.08 20.1016 16.08C20.2456 16.08 20.6376 15.92 21.2776 15.6L21.6136 15.456L22.0936 16.344C21.4056 16.936 20.7096 17.408 20.0056 17.76C19.3176 18.112 18.6696 18.288 18.0616 18.288ZM4.57356 8.64C4.55756 8.672 4.54956 8.712 4.54956 8.76L4.57356 8.64ZM29.527 0.959999C29.767 1.36 29.887 1.976 29.887 2.808C29.887 3.64 29.543 5.56 28.855 8.568C28.183 11.576 27.847 13.488 27.847 14.304C27.847 15.104 28.143 15.504 28.735 15.504C29.759 15.504 30.911 15.064 32.191 14.184C32.287 13.608 32.519 12.448 32.887 10.704C33.751 6.672 34.199 3.896 34.231 2.376C34.231 2.104 34.215 1.88 34.183 1.704C35.463 1.208 36.751 0.959999 38.047 0.959999C38.095 1.056 38.119 1.296 38.119 1.68C38.119 2.56 37.727 4.824 36.943 8.472C36.175 12.12 35.791 14.44 35.791 15.432C35.791 15.864 35.863 16.08 36.007 16.08C36.151 16.08 36.639 15.872 37.471 15.456L37.903 16.344C36.479 17.64 35.215 18.288 34.111 18.288C33.503 18.288 32.999 18.096 32.599 17.712C32.199 17.328 31.991 16.784 31.975 16.08C29.815 17.552 28.023 18.288 26.599 18.288C25.815 18.288 25.183 18.04 24.703 17.544C24.239 17.032 24.007 16.336 24.007 15.456C24.007 14.576 24.335 12.736 24.991 9.936C25.647 7.12 25.975 5.096 25.975 3.864C25.975 3.608 25.895 3.304 25.735 2.952C25.575 2.584 25.415 2.288 25.255 2.064L25.015 1.728L25.063 1.368C25.943 1.096 27.431 0.959999 29.527 0.959999ZM43.7343 23.376C42.9343 23.376 42.2703 23.176 41.7423 22.776C41.2143 22.392 40.9503 21.856 40.9503 21.168C40.9503 19.328 42.8303 18.12 46.5903 17.544C46.7343 17.016 46.8463 16.504 46.9263 16.008C46.1903 16.456 45.4143 16.68 44.5983 16.68C43.1103 16.68 41.9103 16.144 40.9983 15.072C40.0863 13.984 39.6303 12.576 39.6303 10.848C39.6303 9.12 39.9663 7.52 40.6383 6.048C41.3103 4.576 42.2703 3.36 43.5183 2.4C44.7823 1.44 46.1183 0.959999 47.5263 0.959999C48.9503 0.959999 50.1103 1.312 51.0063 2.016C51.9183 2.704 52.3743 3.584 52.3743 4.656C52.3743 5.296 52.2623 5.816 52.0383 6.216C51.9103 6.232 51.7343 6.24 51.5103 6.24C50.2783 6.24 49.3503 6.04 48.7263 5.64L48.7503 3.048C48.3663 2.712 47.8623 2.544 47.2383 2.544C46.2623 2.544 45.3983 3.296 44.6463 4.8C43.8943 6.288 43.5183 8.104 43.5183 10.248C43.5183 11.672 43.7503 12.72 44.2143 13.392C44.6783 14.064 45.2303 14.4 45.8703 14.4C46.8303 14.4 47.6943 13.92 48.4623 12.96C49.2303 12 49.7823 10.856 50.1183 9.528L51.4143 9.744C50.8063 14.32 49.8863 17.736 48.6543 19.992C47.4223 22.248 45.7823 23.376 43.7343 23.376ZM42.5103 21.096C42.5103 21.544 42.8863 21.768 43.6383 21.768C44.0223 21.768 44.4783 21.528 45.0063 21.048C45.5343 20.584 45.9343 19.976 46.2063 19.224C45.2783 19.304 44.4303 19.512 43.6623 19.848C42.8943 20.2 42.5103 20.616 42.5103 21.096ZM57.3514 23.376C56.5514 23.376 55.8874 23.176 55.3594 22.776C54.8314 22.392 54.5674 21.856 54.5674 21.168C54.5674 19.328 56.4474 18.12 60.2074 17.544C60.3514 17.016 60.4634 16.504 60.5434 16.008C59.8074 16.456 59.0314 16.68 58.2154 16.68C56.7274 16.68 55.5274 16.144 54.6154 15.072C53.7034 13.984 53.2474 12.576 53.2474 10.848C53.2474 9.12 53.5834 7.52 54.2554 6.048C54.9274 4.576 55.8874 3.36 57.1354 2.4C58.3994 1.44 59.7354 0.959999 61.1434 0.959999C62.5674 0.959999 63.7274 1.312 64.6234 2.016C65.5354 2.704 65.9914 3.584 65.9914 4.656C65.9914 5.296 65.8794 5.816 65.6554 6.216C65.5274 6.232 65.3514 6.24 65.1274 6.24C63.8954 6.24 62.9674 6.04 62.3434 5.64L62.3674 3.048C61.9834 2.712 61.4794 2.544 60.8554 2.544C59.8794 2.544 59.0154 3.296 58.2634 4.8C57.5114 6.288 57.1354 8.104 57.1354 10.248C57.1354 11.672 57.3674 12.72 57.8314 13.392C58.2954 14.064 58.8474 14.4 59.4874 14.4C60.4474 14.4 61.3114 13.92 62.0794 12.96C62.8474 12 63.3994 10.856 63.7354 9.528L65.0314 9.744C64.4234 14.32 63.5034 17.736 62.2714 19.992C61.0394 22.248 59.3994 23.376 57.3514 23.376ZM56.1274 21.096C56.1274 21.544 56.5034 21.768 57.2554 21.768C57.6394 21.768 58.0954 21.528 58.6234 21.048C59.1514 20.584 59.5514 19.976 59.8234 19.224C58.8954 19.304 58.0474 19.512 57.2794 19.848C56.5114 20.2 56.1274 20.616 56.1274 21.096ZM79.5126 3.072C79.9446 3.712 80.2646 4.392 80.4726 5.112C80.6806 5.816 80.7846 6.6 80.7846 7.464C80.7846 8.328 80.6886 9.248 80.4966 10.224C80.3046 11.2 79.9846 12.176 79.5366 13.152C79.0886 14.128 78.5446 14.992 77.9046 15.744C77.2646 16.496 76.4566 17.112 75.4806 17.592C74.5046 18.056 73.4326 18.288 72.2646 18.288C70.5526 18.288 69.2246 17.68 68.2806 16.464C67.3366 15.232 66.8646 13.656 66.8646 11.736C66.8646 9.8 67.2006 8.032 67.8726 6.432C68.5606 4.816 69.5366 3.504 70.8006 2.496C72.0806 1.472 73.4966 0.959999 75.0486 0.959999C76.0726 0.959999 76.9686 1.152 77.7366 1.536C78.5046 1.92 79.0966 2.432 79.5126 3.072ZM72.9846 16.656C73.7366 16.656 74.3686 16.328 74.8806 15.672C75.4086 15.016 75.8086 14.16 76.0806 13.104C76.6246 11.024 76.8966 8.888 76.8966 6.696C76.8966 3.96 76.1606 2.592 74.6886 2.592C73.8566 2.592 73.1286 3.088 72.5046 4.08C71.3366 5.952 70.7526 8.544 70.7526 11.856C70.7526 13.664 70.8566 14.784 71.0646 15.216C71.1606 15.456 71.2886 15.704 71.4486 15.96C71.7366 16.424 72.2486 16.656 72.9846 16.656Z" fill="black"/>
</svg>
