<svg width="44" height="31" viewBox="0 0 44 31" fill="none" xmlns="http://www.w3.org/2000/svg">
<path d="M18 18.5104L24 20.4588C24 20.4588 39 17.5361 41 17.5361C43 17.5361 43 19.4846 41 21.433C39 23.3815 32 29.2269 26 29.2269C20 29.2269 16 26.3042 12 26.3042C8 26.3042 2 26.3042 2 26.3042" fill="#272727"/>
<path d="M18 18.5104L24 20.4588C24 20.4588 39 17.5361 41 17.5361C43 17.5361 43 19.4846 41 21.433C39 23.3815 32 29.2269 26 29.2269C20 29.2269 16 26.3042 12 26.3042C8 26.3042 2 26.3042 2 26.3042" stroke="#272727" stroke-width="3" stroke-linecap="round" stroke-linejoin="round"/>
<path d="M2 21.433C4 19.4846 8 16.5619 12 16.5619C16 16.5619 25.5 20.4588 27 22.4073C28.5 24.3557 24 27.2784 24 27.2784" fill="#272727"/>
<path d="M2 21.433C4 19.4846 8 16.5619 12 16.5619C16 16.5619 25.5 20.4588 27 22.4073C28.5 24.3557 24 27.2784 24 27.2784" stroke="#272727" stroke-width="3" stroke-linecap="round" stroke-linejoin="round"/>
<path d="M32.4736 6.70863H31.599L31.6059 8.21542L31.6265 12.7798C31.6264 12.7853 31.6259 12.8001 31.6215 12.8381L31.6117 12.9235V13.0094V13.1134H31.5878C31.5237 13.1054 31.4457 13.0996 31.3578 13.1015C31.2646 13.0995 31.185 13.1058 31.124 13.1134H29.8893V10.9601C29.8893 9.57944 28.7479 8.54673 27.4448 8.54673H25.5559C24.2528 8.54673 23.1114 9.57944 23.1114 10.9601V13.1134H21.7876C21.7874 13.1134 21.7872 13.1134 21.7869 13.1134L21.7718 13.1125L21.7446 13.1108L21.636 13.1038L21.5276 13.1126L21.5167 13.1134H21.389V10.2853L21.3916 10.2468V10.1951V8.20863V6.70863H20.5028L26.5143 1.64144L32.4736 6.70863Z" fill="#272727" stroke="#272727" stroke-width="3"/>
</svg>
