<svg width="175" height="18" viewBox="0 0 175 18" fill="none" xmlns="http://www.w3.org/2000/svg">
<path d="M7.72813 7.15625H6.54649C6.04518 7.15625 5.68386 7.0293 5.4625 6.77539C5.24115 6.51497 5.13047 6.17318 5.13047 5.75C5.13047 4.8125 5.83034 4.34375 7.23008 4.34375C8.54518 4.34375 9.53477 4.53906 10.1988 4.92969L9.63242 5.35938C9.17669 5.15104 8.37591 5.04688 7.23008 5.04688C6.67018 5.04688 6.29258 5.10872 6.09727 5.23242C5.90847 5.35612 5.81406 5.52865 5.81406 5.75C5.81406 5.97135 5.86615 6.14388 5.97031 6.26758C6.07448 6.39128 6.26654 6.45312 6.54649 6.45312H7.75742C8.63633 6.45312 9.42735 6.60286 10.1305 6.90234C10.8401 7.20182 11.4228 7.61198 11.8785 8.13281C12.3342 8.64714 12.6826 9.24284 12.9234 9.91992C13.1643 10.5905 13.2848 11.3099 13.2848 12.0781C13.2848 12.7031 13.1969 13.2956 13.0211 13.8555C12.8453 14.4154 12.5784 14.9297 12.2203 15.3984C11.8688 15.8672 11.4423 16.2741 10.941 16.6191C10.4462 16.9577 9.85378 17.2214 9.16367 17.4102C8.48008 17.6055 7.73789 17.7031 6.93711 17.7031C5.6806 17.7031 4.50222 17.5111 3.40195 17.127C2.3082 16.7493 1.39675 16.2188 0.66758 15.5352L1.23399 15.1152C1.89805 15.7142 2.72813 16.1797 3.72422 16.5117C4.72682 16.8372 5.79779 17 6.93711 17C7.82904 17 8.63307 16.873 9.34922 16.6191C10.0719 16.3587 10.6643 16.0039 11.1266 15.5547C11.5953 15.1055 11.9534 14.5846 12.2008 13.9922C12.4547 13.3997 12.5816 12.7617 12.5816 12.0781C12.5816 11.1732 12.3994 10.3561 12.0348 9.62695C11.6702 8.89128 11.1135 8.29557 10.3648 7.83984C9.62266 7.38411 8.74375 7.15625 7.72813 7.15625ZM6.54649 7.85938H7.65977C8.98138 7.85938 10.0133 8.26302 10.7555 9.07031C11.5042 9.8776 11.8785 10.8802 11.8785 12.0781C11.8785 13.2956 11.4456 14.3047 10.5797 15.1055C9.7138 15.8997 8.49961 16.2969 6.93711 16.2969C5.89544 16.2969 4.92214 16.1536 4.01719 15.8672C3.11224 15.5807 2.36029 15.1771 1.76133 14.6562L2.3082 14.2168C2.84206 14.653 3.51263 14.9915 4.31992 15.2324C5.13373 15.4733 6.00612 15.5938 6.93711 15.5938C8.31081 15.5938 9.35899 15.265 10.0816 14.6074C10.8108 13.9499 11.1754 13.1068 11.1754 12.0781C11.1754 11.0625 10.8694 10.2227 10.2574 9.55859C9.65195 8.89453 8.78281 8.5625 7.65 8.5625H6.54649C5.59597 8.5625 4.88307 8.30208 4.40781 7.78125C3.93255 7.26042 3.69492 6.58333 3.69492 5.75C3.69492 4.91667 3.98789 4.23958 4.57383 3.71875C5.16628 3.19792 6.05169 2.9375 7.23008 2.9375C8.0569 2.9375 8.82513 3.03516 9.53477 3.23047C10.2444 3.41927 10.8303 3.69271 11.2926 4.05078L10.7359 4.48047C9.92214 3.92057 8.75352 3.64062 7.23008 3.64062C6.24701 3.64062 5.52761 3.83594 5.07188 4.22656C4.62266 4.61068 4.39805 5.11849 4.39805 5.75C4.39805 6.38802 4.56406 6.89909 4.8961 7.2832C5.23464 7.66732 5.78477 7.85938 6.54649 7.85938ZM6.54649 9.26562H7.6207C8.57123 9.26562 9.28412 9.5293 9.75938 10.0566C10.2346 10.584 10.4723 11.2578 10.4723 12.0781C10.4723 12.9115 10.176 13.5885 9.5836 14.1094C8.99766 14.6302 8.1155 14.8906 6.93711 14.8906C6.11029 14.8906 5.3388 14.7962 4.62266 14.6074C3.91302 14.4121 3.32708 14.1354 2.86485 13.7773L3.42149 13.3477C4.23529 13.9076 5.40716 14.1875 6.93711 14.1875C7.92018 14.1875 8.63633 13.9954 9.08555 13.6113C9.54128 13.2207 9.76914 12.7096 9.76914 12.0781C9.76914 11.4466 9.59987 10.9388 9.26133 10.5547C8.92279 10.1641 8.37266 9.96875 7.61094 9.96875H6.54649C5.21185 9.96875 4.16693 9.57161 3.41172 8.77734C2.66302 7.97656 2.28867 6.96745 2.28867 5.75C2.28867 4.53255 2.72162 3.52669 3.5875 2.73242C4.45339 1.93164 5.66758 1.53125 7.23008 1.53125C8.27175 1.53125 9.2418 1.67448 10.1402 1.96094C11.0452 2.2474 11.7971 2.65104 12.3961 3.17188L11.8492 3.61133C11.3154 3.17513 10.6448 2.83659 9.8375 2.5957C9.03021 2.35482 8.16107 2.23438 7.23008 2.23438C5.85638 2.23438 4.80495 2.56315 4.07578 3.2207C3.35313 3.87826 2.9918 4.72135 2.9918 5.75C2.9918 6.77214 3.29779 7.61523 3.90977 8.2793C4.52175 8.93685 5.40065 9.26562 6.54649 9.26562ZM6.54649 10.6719H7.6207C8.12201 10.6719 8.48333 10.8021 8.70469 11.0625C8.92604 11.3229 9.03672 11.6615 9.03672 12.0781C9.03672 13.0156 8.33685 13.4844 6.93711 13.4844C5.6155 13.4844 4.62266 13.2891 3.9586 12.8984L4.525 12.4688C4.98073 12.6771 5.78477 12.7812 6.93711 12.7812C7.49701 12.7812 7.87136 12.7194 8.06016 12.5957C8.25547 12.472 8.35313 12.2995 8.35313 12.0781C8.35313 11.8633 8.29779 11.694 8.18711 11.5703C8.08294 11.4401 7.88763 11.375 7.60117 11.375H6.54649C5.64805 11.375 4.83425 11.2285 4.10508 10.9355C3.38242 10.6426 2.78672 10.2389 2.31797 9.72461C1.85573 9.21029 1.50091 8.61458 1.25352 7.9375C1.00612 7.26042 0.882423 6.53125 0.882423 5.75C0.882423 5.125 0.970314 4.53255 1.1461 3.97266C1.32188 3.41276 1.58555 2.89844 1.93711 2.42969C2.29518 1.96094 2.72162 1.55729 3.21641 1.21875C3.71771 0.873698 4.31016 0.606771 4.99375 0.417969C5.68386 0.222656 6.4293 0.125 7.23008 0.125C8.48659 0.125 9.66172 0.317057 10.7555 0.701172C11.8492 1.07878 12.7607 1.60938 13.4898 2.29297L12.9234 2.71289C12.2594 2.11393 11.4293 1.65169 10.4332 1.32617C9.43711 0.994141 8.3694 0.828125 7.23008 0.828125C6.33815 0.828125 5.53086 0.958333 4.8082 1.21875C4.09206 1.47266 3.49961 1.82422 3.03086 2.27344C2.56862 2.72266 2.21055 3.24349 1.95664 3.83594C1.70925 4.42839 1.58555 5.06641 1.58555 5.75C1.58555 6.66797 1.7711 7.49479 2.14219 8.23047C2.51328 8.96615 3.07969 9.55859 3.84141 10.0078C4.60313 10.4505 5.50482 10.6719 6.54649 10.6719ZM30.5297 12.2539L30.8129 11.5508H33.2152L33.4984 12.2539H30.5297ZM29.9828 13.6602L30.2563 12.957H33.7621L34.0648 13.6602H29.9828ZM29.4359 15.0664L29.7094 14.3633H34.3188L34.6117 15.0664H29.4359ZM23.723 17H22.9613L29.3578 0.828125H30.1195L36.5063 17H35.7543L29.7387 1.77539L23.723 17ZM29.8266 3.44531L30.227 4.34375L25.227 17H24.475L29.8266 3.44531ZM30.6078 5.30078L30.9789 6.26758L26.7504 17H25.9887L30.6078 5.30078ZM31.35 7.23438L31.7211 8.2207L28.2543 17H27.5023L31.35 7.23438ZM41.0473 17H40.2855L33.8988 0.828125H34.6508L41.0473 17ZM33.1371 0.828125L39.5336 17H38.7816L32.3852 0.828125H33.1371ZM31.6234 0.828125L38.0199 17H37.2582L30.8715 0.828125H31.6234ZM49.6496 0.828125H50.4113L56.427 16.0527L62.4426 0.828125H63.1945L56.8078 17H56.0461L49.6496 0.828125ZM56.9152 13.4844L56.5148 14.3828L51.1633 0.828125H51.9152L56.9152 13.4844ZM57.6672 11.5605L57.2961 12.5273L52.677 0.828125H53.4387L57.6672 11.5605ZM58.4094 9.60742L58.0383 10.5938L54.1906 0.828125H54.9426L58.4094 9.60742ZM66.9738 0.828125H67.7355L61.3391 17H60.5871L66.9738 0.828125ZM65.4699 0.828125H66.2219L59.8254 17H59.0734L65.4699 0.828125ZM63.9465 0.828125H64.7082L58.3117 17H57.5598L63.9465 0.828125ZM83.9258 12.2539L84.209 11.5508H86.6113L86.8945 12.2539H83.9258ZM83.3789 13.6602L83.6523 12.957H87.1582L87.4609 13.6602H83.3789ZM82.832 15.0664L83.1055 14.3633H87.7148L88.0078 15.0664H82.832ZM77.1191 17H76.3574L82.7539 0.828125H83.5156L89.9023 17H89.1504L83.1348 1.77539L77.1191 17ZM83.2227 3.44531L83.623 4.34375L78.623 17H77.8711L83.2227 3.44531ZM84.0039 5.30078L84.375 6.26758L80.1465 17H79.3848L84.0039 5.30078ZM84.7461 7.23438L85.1172 8.2207L81.6504 17H80.8984L84.7461 7.23438ZM94.4434 17H93.6816L87.2949 0.828125H88.0469L94.4434 17ZM86.5332 0.828125L92.9297 17H92.1777L85.7812 0.828125H86.5332ZM85.0195 0.828125L91.416 17H90.6543L84.2676 0.828125H85.0195ZM115.858 9.2168L115.155 8.05469V0.828125H115.858V9.2168ZM117.264 11.5215L116.561 10.3398V0.828125H117.264V11.5215ZM118.671 13.8555L117.968 12.6641V0.828125H118.671V13.8555ZM108.593 8.61133L109.296 9.77344V17H108.593V8.61133ZM107.186 6.30664L107.889 7.48828V17H107.186V6.30664ZM105.78 3.97266L106.483 5.16406V17H105.78V3.97266ZM106.024 0.828125H106.845L116.786 17H115.966L106.024 0.828125ZM107.684 0.828125H108.514L118.446 17H117.606L107.684 0.828125ZM109.335 0.828125H110.155L119.374 15.8574V0.828125H120.077V17C120.077 17 119.8 17 119.247 17L109.335 0.828125ZM105.077 1.9707V17H104.374V0.828125C104.374 0.828125 104.654 0.828125 105.214 0.828125L115.126 17H114.315L105.077 1.9707ZM142.117 9.2168L141.414 8.05469V0.828125H142.117V9.2168ZM143.523 11.5215L142.82 10.3398V0.828125H143.523V11.5215ZM144.929 13.8555L144.226 12.6641V0.828125H144.929V13.8555ZM134.851 8.61133L135.554 9.77344V17H134.851V8.61133ZM133.445 6.30664L134.148 7.48828V17H133.445V6.30664ZM132.039 3.97266L132.742 5.16406V17H132.039V3.97266ZM132.283 0.828125H133.103L143.045 17H142.224L132.283 0.828125ZM133.943 0.828125H134.773L144.705 17H143.865L133.943 0.828125ZM135.593 0.828125H136.414L145.632 15.8574V0.828125H146.336V17C146.336 17 146.059 17 145.505 17L135.593 0.828125ZM131.336 1.9707V17H130.632V0.828125C130.632 0.828125 130.912 0.828125 131.472 0.828125L141.384 17H140.574L131.336 1.9707ZM163.873 12.2539L164.157 11.5508H166.559L166.842 12.2539H163.873ZM163.327 13.6602L163.6 12.957H167.106L167.409 13.6602H163.327ZM162.78 15.0664L163.053 14.3633H167.663L167.955 15.0664H162.78ZM157.067 17H156.305L162.702 0.828125H163.463L169.85 17H169.098L163.082 1.77539L157.067 17ZM163.17 3.44531L163.571 4.34375L158.571 17H157.819L163.17 3.44531ZM163.952 5.30078L164.323 6.26758L160.094 17H159.332L163.952 5.30078ZM164.694 7.23438L165.065 8.2207L161.598 17H160.846L164.694 7.23438ZM174.391 17H173.629L167.243 0.828125H167.995L174.391 17ZM166.481 0.828125L172.877 17H172.125L165.729 0.828125H166.481ZM164.967 0.828125L171.364 17H170.602L164.215 0.828125H164.967Z" fill="#272727"/>
</svg>
