<svg width="24" height="24" viewBox="0 0 24 24" fill="none" xmlns="http://www.w3.org/2000/svg">
<path d="M22.9531 3.80052L19.7581 0.608924C19.3681 0.218973 18.8461 0 18.2941 0C17.7421 0 17.2201 0.215973 16.8301 0.608924L13.3891 4.04349C12.9991 4.43345 12.7801 4.95838 12.7801 5.51031C12.7801 6.06524 12.9961 6.58418 13.3891 6.97713L16.0771 9.66779C15.4647 11.0944 14.5849 12.3905 13.4851 13.4863C12.3841 14.5932 11.097 15.4661 9.66904 16.084L6.98103 13.3933C6.59103 13.0034 6.06903 12.7844 5.51702 12.7844C5.24475 12.7834 4.97502 12.8367 4.72363 12.9413C4.47224 13.0459 4.24425 13.1995 4.05302 13.3933L0.609003 16.8279C0.219001 17.2178 0 17.7428 0 18.2947C0 18.8496 0.216001 19.3686 0.609003 19.7615L3.80102 22.9531C4.46702 23.619 5.38502 24 6.32703 24C6.52203 24 6.71103 23.985 6.90303 23.952C10.875 23.2981 14.8171 21.1834 18.0001 18.0038C21.1801 14.8181 23.2921 10.8766 23.9521 6.90214C24.1411 5.77428 23.7631 4.61342 22.9531 3.80052V3.80052ZM21.8251 6.54518C21.2401 10.0817 19.3381 13.6093 16.4731 16.4739C13.6081 19.3386 10.083 21.2403 6.54603 21.8253C6.10203 21.9003 5.64602 21.7503 5.32202 21.4293L2.18701 18.2947L5.51102 14.9681L9.10504 18.5677L9.13204 18.5947L9.78004 18.3547C11.7448 17.6324 13.5291 16.4916 15.009 15.0113C16.489 13.531 17.6294 11.7466 18.3511 9.78178L18.5911 9.13386L14.9671 5.51331L18.2911 2.18673L21.4261 5.32133C21.7501 5.64529 21.9001 6.10124 21.8251 6.54518Z" fill="black"/>
</svg>
